<?xml version="1.0" encoding="utf-8"?>
<!-- Generator: Adobe Illustrator 22.0.1, SVG Export Plug-In . SVG Version: 6.00 Build 0)  -->
<svg version="1.1" id="Layer_1" xmlns="http://www.w3.org/2000/svg" xmlns:xlink="http://www.w3.org/1999/xlink" x="0px" y="0px"
	 viewBox="0 0 2058.4 424.5" style="enable-background:new 0 0 2058.4 424.5;" xml:space="preserve">
<style type="text/css">
	.st0{fill:#0016FF;}
	.st1{fill:#E70000;}
	.st2{fill:#711ED6;}
	.st3{fill:none;}
</style>
<path class="st0" d="M283.5,143h283.5v283.5H283.5V143z"/>
<path class="st1" d="M0,1.3h283.5v283.5H0L0,1.3z"/>
<path class="st2" d="M0,143h567.1v141.8H0L0,143z"/>
<path d="M741.4,330.2c-15.6,0-34.2-1-47.7-8.6c-24.9-13.8-33.2-51.1-33.2-116.4c0-63.6,7.6-102.3,33.2-116.4
	c13.5-7.6,32.1-8.6,47.7-8.6c50.8,0,70.1,14.9,77.7,65.6h-33.9c-4.5-31.1-12.4-38-43.9-38c-9.7,0-21.4,0-29.7,5.5
	c-16.2,10.4-16.6,56.7-16.6,74.3v35.2c0,17.3,0.3,63.9,16.6,74.3c8.3,5.5,20,5.5,29.7,5.5c31.8,0,39.7-7.2,44.2-38.7h33.5
	C811.5,315,792.5,330.2,741.4,330.2z"/>
<path d="M1015,208.6c0,59.4-5.9,98.1-33.2,113c-13.8,7.6-29,8.6-44.6,8.6c-15.6,0-30.4-1-44.2-8.6c-23.5-12.8-33.2-43.2-33.2-113
	V84.2h32.8v124.7c0,50.8,5.2,79.8,18.3,88.4c7.9,5.5,16.9,5.9,26.3,5.9c9.3,0,18.7-0.3,26.6-5.9c12.8-8.3,18.3-32.1,18.3-88.4V84.2
	h32.8V208.6z"/>
<path d="M1182.1,326V206.5c0-28-14.5-34.2-36.3-34.2c-32.8,0-46.3,24.2-46.3,42.5V326h-32.8V84.2h32.8v85.3
	c7.3-11.7,24.2-23.8,51.8-23.8c42.1,0,63.6,19.4,63.6,56.7V326H1182.1z"/>
<path d="M1376.6,246.9h-52.9c-24.5,0-34.2,6.9-34.2,29.4c0,20.7,11.1,27.6,36.6,27.6c12.1,0,21.8-0.3,30.4-3.5
	c9-3.1,20-10.4,20-22.1V246.9z M1380,326v-21.4c-3.1,6.6-14.8,18.3-24.2,21.4c-10.4,3.8-20.7,4.2-43.2,4.2
	c-35.2,0-58.4-16.2-58.4-55.6c0-25.2,13.8-51.8,55.3-51.8h67c0-20.4-1-35.9-12.8-43.9c-8.3-5.5-21.8-5.9-31.1-5.9
	c-9.3,0-20,0.3-28,5.9c-7.6,4.8-10.7,10.7-12.1,21.8h-33.9c3.1-22.8,11.1-37,28-46.3c13.8-7.6,30.4-8.6,45.9-8.6
	c15.5,0,35.6,1,49.7,8.6c23.8,13.1,27,44.6,27,81.9V326H1380z"/>
<path d="M1575.2,321.5c-13.8,7.6-28.7,8.6-44.2,8.6c-15.5,0-30.4-1-44.2-8.6c-24.2-13.1-33.2-44.6-33.2-81.9
	c0-29,4.2-69.4,33.2-85.3c13.8-7.6,28.7-8.6,44.2-8.6c15.6,0,30.4,1,44.2,8.6c20,10.7,28,33.2,31.4,55.6h-34.5
	c-2.1-14.5-6.6-25.6-14.9-31.1c-7.9-5.5-16.9-5.9-26.3-5.9s-18.3,0.3-26.2,5.9c-13.1,8.6-16.6,31.8-16.6,60.8
	c0,26.9,1.7,47.7,16.6,57.3c7.9,5.5,16.9,5.9,26.2,5.9s18.3-0.3,26.3-5.9c9.7-6.2,13.8-17.6,15.5-32.1h33.8
	C1603.2,290.8,1593.5,311.5,1575.2,321.5z"/>
<path d="M1763.8,326l-85-87.1V326H1646V84.2h32.8v138.2l73.2-72.5h42.1l-83.9,78.4L1808,326H1763.8z"/>
<path d="M1858.8,120.5V84.2h36.3v36.3H1858.8z M1862.2,326V175.8h-43.9v-25.9h76.7V326H1862.2z"/>
<path d="M2024.2,330.2c-33.5,0-57.7-15.9-57.7-51.1V176.1h-39v-26.3h39V94.6l32.8-10.4v65.6h55.6v26.3h-55.6v96.4
	c0,20.4,15.6,29.7,30.4,29.7c9,0,23.8-2.4,28.7-4.5v27.6C2051.1,327.4,2039.4,330.2,2024.2,330.2z"/>
<path class="st3" d="M0-140.5v708.9h2054.9v-708.9H0z M459.7-92.8c-7.3,0-7.3-11.3,0-11.3C467-104.1,467-92.8,459.7-92.8z
	 M636.2,152.8c-7.3,0-7.3-11.3,0-11.3C643.5,141.5,643.5,152.8,636.2,152.8z M636.2-31.4c-7.3,0-7.3-11.3,0-11.3
	C643.5-42.7,643.5-31.4,636.2-31.4z"/>
</svg>
